G04 #@! TF.GenerationSoftware,KiCad,Pcbnew,7.0.6*
G04 #@! TF.CreationDate,2023-10-18T11:42:06+02:00*
G04 #@! TF.ProjectId,SMD-NE555,534d442d-4e45-4353-9535-2e6b69636164,rev?*
G04 #@! TF.SameCoordinates,Original*
G04 #@! TF.FileFunction,Copper,L1,Top*
G04 #@! TF.FilePolarity,Positive*
%FSLAX46Y46*%
G04 Gerber Fmt 4.6, Leading zero omitted, Abs format (unit mm)*
G04 Created by KiCad (PCBNEW 7.0.6) date 2023-10-18 11:42:06*
%MOMM*%
%LPD*%
G01*
G04 APERTURE LIST*
G04 Aperture macros list*
%AMRoundRect*
0 Rectangle with rounded corners*
0 $1 Rounding radius*
0 $2 $3 $4 $5 $6 $7 $8 $9 X,Y pos of 4 corners*
0 Add a 4 corners polygon primitive as box body*
4,1,4,$2,$3,$4,$5,$6,$7,$8,$9,$2,$3,0*
0 Add four circle primitives for the rounded corners*
1,1,$1+$1,$2,$3*
1,1,$1+$1,$4,$5*
1,1,$1+$1,$6,$7*
1,1,$1+$1,$8,$9*
0 Add four rect primitives between the rounded corners*
20,1,$1+$1,$2,$3,$4,$5,0*
20,1,$1+$1,$4,$5,$6,$7,0*
20,1,$1+$1,$6,$7,$8,$9,0*
20,1,$1+$1,$8,$9,$2,$3,0*%
G04 Aperture macros list end*
%ADD10C,0.200000*%
G04 #@! TA.AperFunction,NonConductor*
%ADD11C,0.200000*%
G04 #@! TD*
G04 #@! TA.AperFunction,SMDPad,CuDef*
%ADD12RoundRect,0.250000X0.350000X0.450000X-0.350000X0.450000X-0.350000X-0.450000X0.350000X-0.450000X0*%
G04 #@! TD*
G04 #@! TA.AperFunction,SMDPad,CuDef*
%ADD13RoundRect,0.150000X-0.825000X-0.150000X0.825000X-0.150000X0.825000X0.150000X-0.825000X0.150000X0*%
G04 #@! TD*
G04 #@! TA.AperFunction,SMDPad,CuDef*
%ADD14RoundRect,0.250000X-0.350000X-0.450000X0.350000X-0.450000X0.350000X0.450000X-0.350000X0.450000X0*%
G04 #@! TD*
G04 #@! TA.AperFunction,ComponentPad*
%ADD15RoundRect,0.250000X-0.845000X0.620000X-0.845000X-0.620000X0.845000X-0.620000X0.845000X0.620000X0*%
G04 #@! TD*
G04 #@! TA.AperFunction,ComponentPad*
%ADD16O,2.190000X1.740000*%
G04 #@! TD*
G04 #@! TA.AperFunction,SMDPad,CuDef*
%ADD17RoundRect,0.250000X-0.325000X-0.450000X0.325000X-0.450000X0.325000X0.450000X-0.325000X0.450000X0*%
G04 #@! TD*
G04 #@! TA.AperFunction,SMDPad,CuDef*
%ADD18RoundRect,0.250000X-0.475000X0.337500X-0.475000X-0.337500X0.475000X-0.337500X0.475000X0.337500X0*%
G04 #@! TD*
G04 #@! TA.AperFunction,SMDPad,CuDef*
%ADD19RoundRect,0.250000X0.325000X0.450000X-0.325000X0.450000X-0.325000X-0.450000X0.325000X-0.450000X0*%
G04 #@! TD*
G04 #@! TA.AperFunction,ViaPad*
%ADD20C,1.500000*%
G04 #@! TD*
G04 #@! TA.AperFunction,Conductor*
%ADD21C,0.500000*%
G04 #@! TD*
G04 APERTURE END LIST*
D10*
D11*
X94373173Y-94079719D02*
X94373173Y-93079719D01*
X94373173Y-93079719D02*
X94944601Y-94079719D01*
X94944601Y-94079719D02*
X94944601Y-93079719D01*
X95420792Y-93555909D02*
X95754125Y-93555909D01*
X95896982Y-94079719D02*
X95420792Y-94079719D01*
X95420792Y-94079719D02*
X95420792Y-93079719D01*
X95420792Y-93079719D02*
X95896982Y-93079719D01*
X96801744Y-93079719D02*
X96325554Y-93079719D01*
X96325554Y-93079719D02*
X96277935Y-93555909D01*
X96277935Y-93555909D02*
X96325554Y-93508290D01*
X96325554Y-93508290D02*
X96420792Y-93460671D01*
X96420792Y-93460671D02*
X96658887Y-93460671D01*
X96658887Y-93460671D02*
X96754125Y-93508290D01*
X96754125Y-93508290D02*
X96801744Y-93555909D01*
X96801744Y-93555909D02*
X96849363Y-93651147D01*
X96849363Y-93651147D02*
X96849363Y-93889242D01*
X96849363Y-93889242D02*
X96801744Y-93984480D01*
X96801744Y-93984480D02*
X96754125Y-94032100D01*
X96754125Y-94032100D02*
X96658887Y-94079719D01*
X96658887Y-94079719D02*
X96420792Y-94079719D01*
X96420792Y-94079719D02*
X96325554Y-94032100D01*
X96325554Y-94032100D02*
X96277935Y-93984480D01*
X97754125Y-93079719D02*
X97277935Y-93079719D01*
X97277935Y-93079719D02*
X97230316Y-93555909D01*
X97230316Y-93555909D02*
X97277935Y-93508290D01*
X97277935Y-93508290D02*
X97373173Y-93460671D01*
X97373173Y-93460671D02*
X97611268Y-93460671D01*
X97611268Y-93460671D02*
X97706506Y-93508290D01*
X97706506Y-93508290D02*
X97754125Y-93555909D01*
X97754125Y-93555909D02*
X97801744Y-93651147D01*
X97801744Y-93651147D02*
X97801744Y-93889242D01*
X97801744Y-93889242D02*
X97754125Y-93984480D01*
X97754125Y-93984480D02*
X97706506Y-94032100D01*
X97706506Y-94032100D02*
X97611268Y-94079719D01*
X97611268Y-94079719D02*
X97373173Y-94079719D01*
X97373173Y-94079719D02*
X97277935Y-94032100D01*
X97277935Y-94032100D02*
X97230316Y-93984480D01*
X98706506Y-93079719D02*
X98230316Y-93079719D01*
X98230316Y-93079719D02*
X98182697Y-93555909D01*
X98182697Y-93555909D02*
X98230316Y-93508290D01*
X98230316Y-93508290D02*
X98325554Y-93460671D01*
X98325554Y-93460671D02*
X98563649Y-93460671D01*
X98563649Y-93460671D02*
X98658887Y-93508290D01*
X98658887Y-93508290D02*
X98706506Y-93555909D01*
X98706506Y-93555909D02*
X98754125Y-93651147D01*
X98754125Y-93651147D02*
X98754125Y-93889242D01*
X98754125Y-93889242D02*
X98706506Y-93984480D01*
X98706506Y-93984480D02*
X98658887Y-94032100D01*
X98658887Y-94032100D02*
X98563649Y-94079719D01*
X98563649Y-94079719D02*
X98325554Y-94079719D01*
X98325554Y-94079719D02*
X98230316Y-94032100D01*
X98230316Y-94032100D02*
X98182697Y-93984480D01*
D12*
X108039500Y-79790500D03*
X110039500Y-79790500D03*
X103039500Y-79840500D03*
X105039500Y-79840500D03*
D13*
X106589500Y-84395500D03*
X106589500Y-85665500D03*
X106589500Y-86935500D03*
X106589500Y-88205500D03*
X101639500Y-88205500D03*
X101639500Y-86935500D03*
X101639500Y-85665500D03*
X101639500Y-84395500D03*
D14*
X94345500Y-85256500D03*
X96345500Y-85256500D03*
D15*
X114889500Y-79875500D03*
D16*
X114889500Y-82415500D03*
D17*
X94320500Y-88074500D03*
X96370500Y-88074500D03*
D12*
X96345500Y-82462500D03*
X94345500Y-82462500D03*
D18*
X106489500Y-90635000D03*
X106489500Y-92710000D03*
D12*
X94361500Y-90910500D03*
X96361500Y-90910500D03*
D19*
X96370500Y-79922500D03*
X94320500Y-79922500D03*
D18*
X110864500Y-86890500D03*
X110864500Y-88965500D03*
D20*
X101115500Y-81766500D03*
X101115500Y-92688500D03*
D21*
X110864500Y-89795500D02*
X110864500Y-88965500D01*
X107950000Y-92710000D02*
X110864500Y-89795500D01*
X106489500Y-92710000D02*
X107950000Y-92710000D01*
X111440500Y-88965500D02*
X110864500Y-88965500D01*
X114889500Y-85516500D02*
X111440500Y-88965500D01*
X114889500Y-82415500D02*
X114889500Y-85516500D01*
X104648000Y-84698500D02*
X104648000Y-80232000D01*
X105615000Y-85665500D02*
X104648000Y-84698500D01*
X106589500Y-85665500D02*
X105615000Y-85665500D01*
X104648000Y-80232000D02*
X105039500Y-79840500D01*
X104715500Y-86935500D02*
X106589500Y-86935500D01*
X103445500Y-85665500D02*
X104715500Y-86935500D01*
X103124000Y-85665500D02*
X103445500Y-85665500D01*
X103378000Y-80179000D02*
X103378000Y-85665500D01*
X103378000Y-85665500D02*
X103124000Y-85665500D01*
X103039500Y-79840500D02*
X103378000Y-80179000D01*
X101639500Y-85665500D02*
X103124000Y-85665500D01*
X94361500Y-91776500D02*
X94361500Y-90910500D01*
X99083500Y-92434500D02*
X95019500Y-92434500D01*
X101639500Y-89878500D02*
X99083500Y-92434500D01*
X101639500Y-88205500D02*
X101639500Y-89878500D01*
X95019500Y-92434500D02*
X94361500Y-91776500D01*
X110039500Y-83002500D02*
X110039500Y-79790500D01*
X108646500Y-84395500D02*
X110039500Y-83002500D01*
X106589500Y-84395500D02*
X108646500Y-84395500D01*
X94521551Y-77956500D02*
X108735500Y-77956500D01*
X110039500Y-79260500D02*
X110039500Y-79790500D01*
X93059500Y-79418551D02*
X94521551Y-77956500D01*
X93059500Y-89204500D02*
X93059500Y-79418551D01*
X108735500Y-77956500D02*
X110039500Y-79260500D01*
X96370500Y-89386500D02*
X93241500Y-89386500D01*
X93241500Y-89386500D02*
X93059500Y-89204500D01*
X98829500Y-81258500D02*
X97559500Y-79988500D01*
X98829500Y-81766500D02*
X98829500Y-81258500D01*
X98829500Y-81766500D02*
X98829500Y-83036500D01*
X101115500Y-81766500D02*
X98829500Y-81766500D01*
X100188500Y-84395500D02*
X98829500Y-83036500D01*
X101137000Y-92710000D02*
X101115500Y-92688500D01*
X106489500Y-92710000D02*
X101137000Y-92710000D01*
X97559500Y-79988500D02*
X96436500Y-79988500D01*
X101639500Y-84395500D02*
X100188500Y-84395500D01*
X98024500Y-86935500D02*
X101639500Y-86935500D01*
X96345500Y-85256500D02*
X98024500Y-86935500D01*
X114889500Y-79875500D02*
X110124500Y-79875500D01*
X110864500Y-86890500D02*
X106634500Y-86890500D01*
X106489500Y-88305500D02*
X106589500Y-88205500D01*
X106489500Y-90635000D02*
X106489500Y-88305500D01*
X96370500Y-90901500D02*
X96361500Y-90910500D01*
X96370500Y-88074500D02*
X96370500Y-90901500D01*
X94345500Y-88049500D02*
X94320500Y-88074500D01*
X94345500Y-85256500D02*
X94345500Y-88049500D01*
X94345500Y-79947500D02*
X94320500Y-79922500D01*
X94345500Y-82462500D02*
X94345500Y-79947500D01*
X96345500Y-85256500D02*
X96345500Y-82462500D01*
X106634500Y-86890500D02*
X106589500Y-86935500D01*
X108039500Y-79790500D02*
X105089500Y-79790500D01*
X105089500Y-79790500D02*
X105039500Y-79840500D01*
X110124500Y-79875500D02*
X110039500Y-79790500D01*
M02*
